<?xml version="1.0" standalone="no"?>
<!DOCTYPE svg PUBLIC "-//W3C//DTD SVG 20010904//EN"
 "http://www.w3.org/TR/2001/REC-SVG-20010904/DTD/svg10.dtd">
<svg version="1.0" xmlns="http://www.w3.org/2000/svg"
 width="512.000000pt" height="512.000000pt" viewBox="0 0 512.000000 512.000000"
 preserveAspectRatio="xMidYMid meet">
<metadata>
Created by potrace 1.14, written by Peter Selinger 2001-2017
</metadata>
<g transform="translate(0.000000,512.000000) scale(0.100000,-0.100000)"
fill="#000000" stroke="none">
<path d="M3865 4769 c-38 -17 -88 -39 -110 -48 -22 -10 -109 -49 -194 -86
-171 -76 -249 -128 -312 -207 -64 -81 -93 -152 -161 -403 l-63 -230 -650 0
-650 0 1 -60 c2 -77 14 -304 18 -330 3 -20 11 -20 584 -20 320 0 582 -2 582
-4 0 -2 -10 -39 -22 -82 l-21 -79 -557 0 -556 0 2 -42 c2 -53 13 -260 19 -353
4 -78 13 -232 21 -370 3 -49 7 -119 9 -155 2 -36 7 -121 10 -190 4 -69 9 -147
10 -175 2 -27 6 -102 10 -165 3 -63 8 -149 10 -190 2 -41 7 -120 10 -175 6
-121 14 -255 20 -350 3 -38 8 -124 11 -190 6 -116 11 -182 13 -197 1 -10 1759
-10 1765 0 4 6 10 102 21 327 5 85 7 126 20 335 3 47 7 130 10 185 3 55 7 138
10 185 12 201 15 250 20 345 3 55 7 134 10 175 3 41 7 125 10 185 4 61 8 139
10 175 2 36 7 115 10 175 3 61 8 137 10 170 2 33 7 113 10 178 l6 117 -387 -2
-387 -3 -69 -250 c-37 -137 -84 -306 -103 -375 -19 -69 -53 -192 -75 -275 -23
-82 -52 -188 -65 -235 -13 -47 -74 -267 -135 -490 -61 -223 -117 -429 -126
-457 -17 -63 -46 -93 -89 -93 -36 0 -72 33 -78 70 -2 13 7 63 20 110 13 47 26
92 28 100 6 27 366 1337 436 1587 22 78 42 150 44 160 2 10 12 47 22 83 l18
65 87 3 87 3 11 42 c6 23 17 60 24 82 l13 40 366 0 367 0 1 25 c0 14 2 43 4
65 2 22 6 93 9 157 3 64 6 121 7 125 7 41 14 40 -316 40 -173 0 -317 2 -321 5
-3 3 8 52 25 109 16 57 39 142 51 189 39 155 101 251 201 312 18 11 141 68
274 125 132 58 249 114 260 124 30 29 26 86 -9 115 -35 31 -56 30 -141 -7z"/>
<path d="M1389 4525 c-182 -47 -296 -189 -304 -379 -10 -211 119 -377 325
-419 36 -7 75 -12 88 -11 12 1 30 2 41 3 17 1 18 8 14 95 -5 91 -4 96 20 120
28 28 29 28 189 28 l107 0 11 32 c39 118 28 227 -32 336 -89 160 -280 241
-459 195z"/>
<path d="M1945 470 c17 -33 61 -77 105 -105 70 -44 108 -46 765 -43 l620 3 51
26 c62 32 99 63 125 105 10 17 19 33 19 36 0 2 -382 4 -849 4 l-849 0 13 -26z"/>
</g>
</svg>
